<svg xmlns="http://www.w3.org/2000/svg" xmlns:xlink="http://www.w3.org/1999/xlink" viewBox="0 0 194.75 100"><defs><style>.cls-1{fill:#00a9b9;}.cls-2{fill:#d7e6e6;}.cls-3{fill:url(#Gradient_bez_nazwy_17);}.cls-4{fill:none;opacity:0;}</style><linearGradient id="Gradient_bez_nazwy_17" x1="48.84" y1="48.12" x2="146.21" y2="48.12" gradientUnits="userSpaceOnUse"><stop offset="0.38" stop-color="#d7e6e6"/><stop offset="1" stop-color="#00a9b9"/></linearGradient></defs><title>Zasób 4</title><g id="Warstwa_2" data-name="Warstwa 2"><g id="Warstwa_1-2" data-name="Warstwa 1"><circle class="cls-1" cx="13.5" cy="40.75" r="3.5"/><circle class="cls-1" cx="23.5" cy="30.75" r="3.5"/><circle class="cls-1" cx="33.5" cy="80.75" r="3.5"/><circle class="cls-1" cx="13.5" cy="60.75" r="3.5"/><circle class="cls-1" cx="23.5" cy="70.75" r="3.5"/><circle class="cls-1" cx="3.5" cy="50.75" r="3.5"/><circle class="cls-1" cx="33.5" cy="20.75" r="3.5"/><circle class="cls-1" cx="45.5" cy="20.75" r="2.5"/><circle class="cls-1" cx="54.5" cy="20.75" r="1.5"/><circle class="cls-1" cx="62.5" cy="20.75" r="1"/><circle class="cls-1" cx="35.5" cy="30.75" r="2.5"/><circle class="cls-1" cx="44.5" cy="30.75" r="1.5"/><circle class="cls-1" cx="52.5" cy="30.75" r="1"/><circle class="cls-1" cx="25.5" cy="40.75" r="2.5"/><circle class="cls-1" cx="34.5" cy="40.75" r="1.5"/><circle class="cls-1" cx="42.5" cy="40.75" r="1"/><circle class="cls-1" cx="17.5" cy="50.75" r="2.5"/><circle class="cls-1" cx="26.5" cy="50.75" r="1.5"/><circle class="cls-1" cx="34.5" cy="50.75" r="1"/><circle class="cls-1" cx="25.5" cy="60.75" r="2.5"/><circle class="cls-1" cx="34.5" cy="60.75" r="1.5"/><circle class="cls-1" cx="42.5" cy="60.75" r="1"/><circle class="cls-1" cx="35.5" cy="70.75" r="2.5"/><circle class="cls-1" cx="44.5" cy="70.75" r="1.5"/><circle class="cls-1" cx="52.5" cy="70.75" r="1"/><circle class="cls-1" cx="45.5" cy="80.75" r="2.5"/><circle class="cls-1" cx="54.5" cy="80.75" r="1.5"/><circle class="cls-1" cx="62.5" cy="80.75" r="1"/><circle class="cls-2" cx="180.26" cy="60.75" r="3.5"/><circle class="cls-2" cx="170.26" cy="70.75" r="3.5"/><circle class="cls-2" cx="160.26" cy="20.75" r="3.5"/><circle class="cls-2" cx="180.26" cy="40.75" r="3.5"/><circle class="cls-2" cx="170.26" cy="30.75" r="3.5"/><circle class="cls-2" cx="190.26" cy="50.75" r="3.5"/><circle class="cls-2" cx="160.26" cy="80.75" r="3.5"/><circle class="cls-2" cx="148.26" cy="80.75" r="2.5"/><circle class="cls-2" cx="139.26" cy="80.75" r="1.5"/><circle class="cls-2" cx="131.26" cy="80.75" r="1"/><circle class="cls-2" cx="158.26" cy="70.75" r="2.5"/><circle class="cls-2" cx="149.26" cy="70.75" r="1.5"/><circle class="cls-2" cx="141.26" cy="70.75" r="1"/><circle class="cls-2" cx="168.26" cy="60.75" r="2.5"/><circle class="cls-2" cx="159.26" cy="60.75" r="1.5"/><circle class="cls-2" cx="151.26" cy="60.75" r="1"/><circle class="cls-2" cx="176.26" cy="50.75" r="2.5"/><circle class="cls-2" cx="167.26" cy="50.75" r="1.5"/><circle class="cls-2" cx="159.26" cy="50.75" r="1"/><circle class="cls-2" cx="168.26" cy="40.75" r="2.5"/><circle class="cls-2" cx="159.26" cy="40.75" r="1.5"/><circle class="cls-2" cx="151.26" cy="40.75" r="1"/><circle class="cls-2" cx="158.26" cy="30.75" r="2.5"/><circle class="cls-2" cx="149.26" cy="30.75" r="1.5"/><circle class="cls-2" cx="141.26" cy="30.75" r="1"/><circle class="cls-2" cx="148.26" cy="20.75" r="2.5"/><circle class="cls-2" cx="139.26" cy="20.75" r="1.5"/><circle class="cls-2" cx="131.26" cy="20.75" r="1"/><path class="cls-3" d="M61.73,39.19V57.05H57.51l-.17-1.32a4.33,4.33,0,0,1-3.62,1.8,4.1,4.1,0,0,1-3.65-1.85,9.13,9.13,0,0,1-1.23-5.11,8.77,8.77,0,0,1,.68-3.52,5.69,5.69,0,0,1,1.88-2.42,4.69,4.69,0,0,1,2.8-.88,4,4,0,0,1,2.78,1v-6ZM57,53V47.86a2.65,2.65,0,0,0-.67-.54,1.56,1.56,0,0,0-.74-.18,1.52,1.52,0,0,0-1.35.83,5.34,5.34,0,0,0-.5,2.65,6.2,6.2,0,0,0,.42,2.81,1.31,1.31,0,0,0,1.18.69A1.88,1.88,0,0,0,57,53Z"/><path class="cls-3" d="M75.72,52H68a2.54,2.54,0,0,0,.8,1.74,3,3,0,0,0,1.77.44,3.65,3.65,0,0,0,1.37-.28A7.54,7.54,0,0,0,73.42,53l1.92,2.59a8.1,8.1,0,0,1-5.28,1.9,6.73,6.73,0,0,1-5.16-1.88,7,7,0,0,1-1.75-5,8.18,8.18,0,0,1,.73-3.5,5.83,5.83,0,0,1,2.17-2.49,6.28,6.28,0,0,1,3.48-.93,6.62,6.62,0,0,1,3.31.8,5.32,5.32,0,0,1,2.2,2.3,7.83,7.83,0,0,1,.78,3.62A13.65,13.65,0,0,1,75.72,52Zm-4.58-2.86a4,4,0,0,0-.35-1.75,1.18,1.18,0,0,0-1.16-.63,1.36,1.36,0,0,0-1.19.56,4.13,4.13,0,0,0-.51,2h3.21Z"/><path class="cls-3" d="M77,51.34v-3.6h8.16v3.6Z"/><path class="cls-3" d="M97.85,53.89a1.09,1.09,0,0,0,.6.5l-1,3a5.65,5.65,0,0,1-2.11-.49A3.16,3.16,0,0,1,94,55.66a4.32,4.32,0,0,1-3.87,1.87,4.2,4.2,0,0,1-3.06-1.14A4,4,0,0,1,86,53.45a3.77,3.77,0,0,1,1.58-3.26,7.85,7.85,0,0,1,4.61-1.13h.91v-.31a1.72,1.72,0,0,0-.38-1.3,2.36,2.36,0,0,0-1.47-.34,7.82,7.82,0,0,0-1.47.18,15.35,15.35,0,0,0-1.84.5l-1-3A13,13,0,0,1,89.42,44a13.1,13.1,0,0,1,2.5-.27,6.73,6.73,0,0,1,4.4,1.17,4.41,4.41,0,0,1,1.36,3.56V52.9A2.23,2.23,0,0,0,97.85,53.89ZM92.44,54a2,2,0,0,0,.61-.55v-1.9h-.5a2.5,2.5,0,0,0-1.49.36,1.49,1.49,0,0,0-.19,2,1,1,0,0,0,.77.32A1.62,1.62,0,0,0,92.44,54Z"/><path class="cls-3" d="M100.5,56.44a4.32,4.32,0,0,1-1-3.09V39.19l4.75-.48V53.16c0,.43.19.65.58.65a1.24,1.24,0,0,0,.5-.1l.84,3.39a7.31,7.31,0,0,1-2.64.43A4,4,0,0,1,100.5,56.44Z"/><path class="cls-3" d="M117.92,53.89a1.09,1.09,0,0,0,.6.5l-1,3a5.71,5.71,0,0,1-2.12-.49,3.16,3.16,0,0,1-1.34-1.28,4.31,4.31,0,0,1-3.86,1.87,4.17,4.17,0,0,1-3.06-1.14A3.92,3.92,0,0,1,106,53.45a3.75,3.75,0,0,1,1.59-3.26,7.81,7.81,0,0,1,4.6-1.13h.92v-.31a1.68,1.68,0,0,0-.39-1.3,2.3,2.3,0,0,0-1.46-.34,7.82,7.82,0,0,0-1.48.18,14.72,14.72,0,0,0-1.83.5l-1-3a14.91,14.91,0,0,1,5.07-1,6.7,6.7,0,0,1,4.39,1.17,4.41,4.41,0,0,1,1.37,3.56V52.9A2.09,2.09,0,0,0,117.92,53.89ZM112.5,54a2.06,2.06,0,0,0,.62-.55v-1.9h-.51a2.5,2.5,0,0,0-1.49.36,1.49,1.49,0,0,0-.19,2,1,1,0,0,0,.77.32A1.57,1.57,0,0,0,112.5,54Z"/><path class="cls-3" d="M130.79,44.76a4,4,0,0,1,.93,2.83v9.46H127V48.46a1.92,1.92,0,0,0-.18-1,.62.62,0,0,0-.54-.26c-.52,0-1.06.42-1.6,1.27v8.57h-4.76V44.23H124l.33,1.32a6,6,0,0,1,1.81-1.36,4.84,4.84,0,0,1,2.08-.44A3.26,3.26,0,0,1,130.79,44.76Z"/><path class="cls-3" d="M144.45,45.55a7,7,0,0,1,1.76,5.12,7.88,7.88,0,0,1-.8,3.62,5.71,5.71,0,0,1-2.29,2.4,7,7,0,0,1-3.51.84,6.43,6.43,0,0,1-4.83-1.8A7,7,0,0,1,133,50.62a7.77,7.77,0,0,1,.81-3.63,5.65,5.65,0,0,1,2.29-2.4,7,7,0,0,1,3.5-.84A6.47,6.47,0,0,1,144.45,45.55ZM138.29,48a6.28,6.28,0,0,0-.41,2.64,6.48,6.48,0,0,0,.41,2.7,1.48,1.48,0,0,0,2.64,0,6.35,6.35,0,0,0,.41-2.64,6.42,6.42,0,0,0-.41-2.7,1.48,1.48,0,0,0-2.64,0Z"/><rect class="cls-4" x="19.75" width="175" height="100"/></g></g></svg>