<svg xmlns="http://www.w3.org/2000/svg" xmlns:xlink="http://www.w3.org/1999/xlink" viewBox="0 0 124.64 64"><defs><style>.cls-1{fill:#00a9b9;}.cls-2{fill:#d7e6e6;}.cls-3{fill:url(#Gradient_bez_nazwy_17);}.cls-4{fill:none;opacity:0;}</style><linearGradient id="Gradient_bez_nazwy_17" x1="31.26" y1="30.8" x2="93.58" y2="30.8" gradientUnits="userSpaceOnUse"><stop offset="0.38" stop-color="#d7e6e6"/><stop offset="1" stop-color="#00a9b9"/></linearGradient></defs><title>Zasób 5</title><g id="Warstwa_2" data-name="Warstwa 2"><g id="Warstwa_1-2" data-name="Warstwa 1"><circle class="cls-1" cx="8.64" cy="26.08" r="2.24"/><circle class="cls-1" cx="15.04" cy="19.68" r="2.24"/><circle class="cls-1" cx="21.44" cy="51.68" r="2.24"/><circle class="cls-1" cx="8.64" cy="38.88" r="2.24"/><circle class="cls-1" cx="15.04" cy="45.28" r="2.24"/><circle class="cls-1" cx="2.24" cy="32.48" r="2.24"/><circle class="cls-1" cx="21.44" cy="13.28" r="2.24"/><circle class="cls-1" cx="29.12" cy="13.28" r="1.6"/><circle class="cls-1" cx="34.88" cy="13.28" r="0.96"/><circle class="cls-1" cx="40" cy="13.28" r="0.64"/><circle class="cls-1" cx="22.72" cy="19.68" r="1.6"/><circle class="cls-1" cx="28.48" cy="19.68" r="0.96"/><circle class="cls-1" cx="33.6" cy="19.68" r="0.64"/><circle class="cls-1" cx="16.32" cy="26.08" r="1.6"/><circle class="cls-1" cx="22.08" cy="26.08" r="0.96"/><circle class="cls-1" cx="27.2" cy="26.08" r="0.64"/><circle class="cls-1" cx="11.2" cy="32.48" r="1.6"/><circle class="cls-1" cx="16.96" cy="32.48" r="0.96"/><circle class="cls-1" cx="22.08" cy="32.48" r="0.64"/><circle class="cls-1" cx="16.32" cy="38.88" r="1.6"/><circle class="cls-1" cx="22.08" cy="38.88" r="0.96"/><circle class="cls-1" cx="27.2" cy="38.88" r="0.64"/><circle class="cls-1" cx="22.72" cy="45.28" r="1.6"/><circle class="cls-1" cx="28.48" cy="45.28" r="0.96"/><circle class="cls-1" cx="33.6" cy="45.28" r="0.64"/><circle class="cls-1" cx="29.12" cy="51.68" r="1.6"/><circle class="cls-1" cx="34.88" cy="51.68" r="0.96"/><circle class="cls-1" cx="40" cy="51.68" r="0.64"/><circle class="cls-2" cx="115.36" cy="38.88" r="2.24"/><circle class="cls-2" cx="108.96" cy="45.28" r="2.24"/><circle class="cls-2" cx="102.56" cy="13.28" r="2.24"/><circle class="cls-2" cx="115.36" cy="26.08" r="2.24"/><circle class="cls-2" cx="108.96" cy="19.68" r="2.24"/><circle class="cls-2" cx="121.76" cy="32.48" r="2.24"/><circle class="cls-2" cx="102.56" cy="51.68" r="2.24"/><circle class="cls-2" cx="94.88" cy="51.68" r="1.6"/><circle class="cls-2" cx="89.12" cy="51.68" r="0.96"/><circle class="cls-2" cx="84" cy="51.68" r="0.64"/><circle class="cls-2" cx="101.28" cy="45.28" r="1.6"/><circle class="cls-2" cx="95.52" cy="45.28" r="0.96"/><circle class="cls-2" cx="90.4" cy="45.28" r="0.64"/><circle class="cls-2" cx="107.68" cy="38.88" r="1.6"/><circle class="cls-2" cx="101.92" cy="38.88" r="0.96"/><circle class="cls-2" cx="96.8" cy="38.88" r="0.64"/><circle class="cls-2" cx="112.8" cy="32.48" r="1.6"/><circle class="cls-2" cx="107.04" cy="32.48" r="0.96"/><circle class="cls-2" cx="101.92" cy="32.48" r="0.64"/><circle class="cls-2" cx="107.68" cy="26.08" r="1.6"/><circle class="cls-2" cx="101.92" cy="26.08" r="0.96"/><circle class="cls-2" cx="96.8" cy="26.08" r="0.64"/><circle class="cls-2" cx="101.28" cy="19.68" r="1.6"/><circle class="cls-2" cx="95.52" cy="19.68" r="0.96"/><circle class="cls-2" cx="90.4" cy="19.68" r="0.64"/><circle class="cls-2" cx="94.88" cy="13.28" r="1.6"/><circle class="cls-2" cx="89.12" cy="13.28" r="0.96"/><circle class="cls-2" cx="84" cy="13.28" r="0.64"/><path class="cls-3" d="M39.51,25.08V36.51h-2.7l-.11-.84a2.76,2.76,0,0,1-2.32,1.15A2.64,2.64,0,0,1,32,35.64a5.92,5.92,0,0,1-.78-3.28,5.54,5.54,0,0,1,.43-2.25,3.71,3.71,0,0,1,1.21-1.55A3,3,0,0,1,34.69,28a2.59,2.59,0,0,1,1.78.65V24.78Zm-3,8.84V30.63a2.13,2.13,0,0,0-.43-.35,1.09,1.09,0,0,0-.48-.11,1,1,0,0,0-.86.53,3.45,3.45,0,0,0-.32,1.7,3.89,3.89,0,0,0,.27,1.79.84.84,0,0,0,.76.45A1.22,1.22,0,0,0,36.47,33.92Z"/><path class="cls-3" d="M48.46,33.27h-5A1.61,1.61,0,0,0,44,34.38a1.9,1.9,0,0,0,1.13.29,2.35,2.35,0,0,0,.88-.18A5.83,5.83,0,0,0,47,34l1.23,1.66a5.25,5.25,0,0,1-3.38,1.21,4.26,4.26,0,0,1-3.3-1.21,4.46,4.46,0,0,1-1.12-3.18,5.28,5.28,0,0,1,.46-2.24,3.86,3.86,0,0,1,1.39-1.6A4.1,4.1,0,0,1,44.5,28a4.24,4.24,0,0,1,2.12.51A3.51,3.51,0,0,1,48,30a5.06,5.06,0,0,1,.5,2.32A7.71,7.71,0,0,1,48.46,33.27Zm-2.93-1.83a2.58,2.58,0,0,0-.22-1.12.78.78,0,0,0-.75-.4.87.87,0,0,0-.76.36,2.65,2.65,0,0,0-.33,1.27h2.06Z"/><path class="cls-3" d="M49.25,32.86V30.55h5.22v2.31Z"/><path class="cls-3" d="M62.63,34.49a.68.68,0,0,0,.38.32l-.61,1.95A3.73,3.73,0,0,1,61,36.44a2.1,2.1,0,0,1-.86-.82,2.75,2.75,0,0,1-2.47,1.2,2.67,2.67,0,0,1-2-.73A2.54,2.54,0,0,1,55,34.21a2.42,2.42,0,0,1,1-2.09A5.08,5.08,0,0,1,59,31.4h.58v-.2a1.1,1.1,0,0,0-.24-.83,1.45,1.45,0,0,0-.94-.22,4.8,4.8,0,0,0-.94.12,9,9,0,0,0-1.18.31l-.66-1.93a8,8,0,0,1,1.64-.48,8.82,8.82,0,0,1,1.6-.17,4.28,4.28,0,0,1,2.81.75A2.79,2.79,0,0,1,62.52,31v2.82A1.34,1.34,0,0,0,62.63,34.49Zm-3.47.06a1.23,1.23,0,0,0,.39-.36V33h-.32a1.6,1.6,0,0,0-.95.23.81.81,0,0,0-.31.71.79.79,0,0,0,.19.56.63.63,0,0,0,.49.2A1,1,0,0,0,59.16,34.55Z"/><path class="cls-3" d="M64.32,36.12a2.76,2.76,0,0,1-.66-2V25.08l3-.3V34q0,.42.36.42a.92.92,0,0,0,.33-.06l.54,2.16a4.64,4.64,0,0,1-1.69.28A2.53,2.53,0,0,1,64.32,36.12Z"/><path class="cls-3" d="M75.47,34.49a.68.68,0,0,0,.38.32l-.61,1.95a3.62,3.62,0,0,1-1.35-.32,2.07,2.07,0,0,1-.87-.82,2.75,2.75,0,0,1-2.47,1.2,2.67,2.67,0,0,1-2-.73,2.54,2.54,0,0,1-.74-1.88,2.42,2.42,0,0,1,1-2.09,5.08,5.08,0,0,1,3-.72h.58v-.2a1.1,1.1,0,0,0-.24-.83,1.43,1.43,0,0,0-.94-.22,4.8,4.8,0,0,0-.94.12,9,9,0,0,0-1.18.31l-.66-1.93a8,8,0,0,1,1.64-.48,8.82,8.82,0,0,1,1.6-.17,4.28,4.28,0,0,1,2.81.75A2.79,2.79,0,0,1,75.36,31v2.82A1.47,1.47,0,0,0,75.47,34.49ZM72,34.55a1.23,1.23,0,0,0,.39-.36V33h-.32a1.62,1.62,0,0,0-.95.23.84.84,0,0,0-.31.71.79.79,0,0,0,.19.56.63.63,0,0,0,.49.2A1,1,0,0,0,72,34.55Z"/><path class="cls-3" d="M83.71,28.65a2.59,2.59,0,0,1,.59,1.81v6h-3V31a1.2,1.2,0,0,0-.12-.63.38.38,0,0,0-.34-.17c-.34,0-.68.28-1,.82v5.48h-3v-8.2h2.65l.22.84a3.75,3.75,0,0,1,1.16-.87A3,3,0,0,1,82.09,28,2.11,2.11,0,0,1,83.71,28.65Z"/><path class="cls-3" d="M92.45,29.15a4.5,4.5,0,0,1,1.13,3.28,5.05,5.05,0,0,1-.52,2.32,3.62,3.62,0,0,1-1.47,1.53,4.45,4.45,0,0,1-2.24.54,4.11,4.11,0,0,1-3.09-1.15,4.45,4.45,0,0,1-1.13-3.27,5,5,0,0,1,.51-2.32,3.64,3.64,0,0,1,1.47-1.54A4.45,4.45,0,0,1,89.35,28,4.19,4.19,0,0,1,92.45,29.15Zm-3.94,1.56a3.9,3.9,0,0,0-.26,1.69,4,4,0,0,0,.26,1.72.86.86,0,0,0,.84.52.9.9,0,0,0,.85-.52,4.13,4.13,0,0,0,.26-1.69,4.18,4.18,0,0,0-.26-1.73.89.89,0,0,0-.85-.52A.87.87,0,0,0,88.51,30.71Z"/><rect class="cls-4" x="12.64" width="112" height="64"/></g></g></svg>