<?xml version="1.0"?>
<svg xmlns="http://www.w3.org/2000/svg" xmlns:xlink="http://www.w3.org/1999/xlink" version="1.1" id="Capa_1" x="0px" y="0px" viewBox="0 0 432.102 432.102" style="enable-background:new 0 0 432.102 432.102;" xml:space="preserve" width="512px" height="512px" class=""><g><g>
	<g id="XMLID_940_">
		<path id="XMLID_941_" d="M348.54,223.029c7.002,2.543,14.743-1.069,17.289-8.072c2.545-7.003-1.068-14.744-8.072-17.29    l-19.56-7.109c4.826,9.036,5.241,19.813,1.241,29.162L348.54,223.029z" data-original="#000000" class="active-path" data-old_color="#000000" fill="rgba(38,49,55,.4)"/>
		<path id="XMLID_1032_" d="M251.817,201.913c0,0-12.252-15.299-20.091-23.676c-6.948-6.843-8.419-17.165-4.414-25.488    l28.673-59.358l-12.115,62.564c-1.073,5.545,0.699,11.259,4.723,15.222l48.005,47.283c6.637,6.537,17.315,6.455,23.851-0.181    s6.455-17.314-0.181-23.85l-41.563-40.938l10.395-53.69l2.355,34.871l12.837-9.806c11.037-8.43,13.149-24.211,4.719-35.247    L281.79,53.983c-8.43-11.036-24.211-13.149-35.248-4.719c-73.744,56.329-70.225,53.265-74.071,57.573    c-4.988,5.587-8.33,12.244-9.922,19.269l-1.807-1.117c-6.359-3.935-14.693-1.887-18.57,4.38    c-3.986,6.446-1.83,14.732,4.381,18.571l24.661,15.247l37.041,48.323l-63.335,56.355c-8.35,7.43-9.097,20.222-1.667,28.573    c1.339,1.505,2.851,2.762,4.481,3.769c3.238,2.002,6.936,3.016,10.646,3.016c4.785,0,9.59-1.688,13.446-5.119l77.339-68.815    C257.066,222.258,258.222,210.329,251.817,201.913z" data-original="#000000" class="active-path" data-old_color="#000000" fill="rgba(38,49,55,.4)"/>
		<circle id="XMLID_1033_" cx="342.418" cy="41.583" r="37.224" data-original="#000000" class="active-path" data-old_color="#000000" fill="rgba(38,49,55,.4)"/>
		<path id="XMLID_1037_" d="M430.9,413.395l-30.502-56.341c-1.453-2.636-4.05-4.446-7.025-4.896    c-2.978-0.453-5.992,0.509-8.159,2.597l-15.58,15.002l-23.308,2.065c7.169-31.742-8.184-66.146-40.295-80.644l12.469-52.541    c-11.633,3.627-24.646,0.789-33.737-8.163l-12.813-12.62c-0.756,7.437-3.745,14.374-8.545,19.981l24.594,11.579l-0.374,1.72    l-45.933,6.476l-36.393,32.382l75.818-10.69l-1.343,5.659c-24.908-1.017-49.66,11.04-63.677,33.711    c-20.676,33.441-10.291,77.467,23.15,98.143c11.653,7.206,24.59,10.638,37.379,10.638c3.863,0,145.803,0.289,145.803,0.289    c3.422-0.001,6.589-1.809,8.329-4.756S432.552,416.392,430.9,413.395z M253.437,393.863c-20.785-12.851-27.24-40.216-14.39-61.001    c7.721-12.488,20.682-19.786,34.306-20.85l-9.739,41.04c-1.72,7.25,2.763,14.522,10.013,16.243    c7.259,1.722,14.524-2.77,16.243-10.012l9.744-41.058c21.276,12.845,27.684,40.448,14.824,61.249    C301.586,400.259,274.221,406.713,253.437,393.863z" data-original="#000000" class="active-path" data-old_color="#000000" fill="rgba(38,49,55,.4)"/>
		<path id="XMLID_1040_" d="M138.152,204.332l21.407-13.012l-7.924,48.898c3.332-2.965,31.313-27.861,34.656-30.836    c-5.215-6.853-19.284-25.339-24.452-32.13l-9.832-12.919l-27.849,16.928c-4.437-4.88-9.571-9.178-15.336-12.742    c-33.519-20.723-77.416-10.374-98.143,23.15c-20.723,33.518-10.374,77.416,23.15,98.142    c29.196,18.053,65.779,12.376,88.333-10.646c1.648-15.69,11.434-22.897,16.93-27.787    C144.059,236.321,143.895,219.882,138.152,204.332z M114.459,218.989c1.65,6.996,1.575,14.126-0.124,20.904L97.14,229.262    l17.262-10.493C114.419,218.843,114.442,218.915,114.459,218.989z M48.019,266.859c-20.834-12.882-27.27-40.165-14.389-61.001    c12.842-20.77,40.091-27.317,61.001-14.389c2.051,1.268,3.969,2.691,5.759,4.238l-36.072,21.927    c-4.011,2.438-6.467,6.785-6.484,11.478c-0.018,4.694,2.405,9.059,6.397,11.527l35.915,22.205    C86.023,274.957,64.991,277.349,48.019,266.859z" data-original="#000000" class="active-path" data-old_color="#000000" fill="rgba(38,49,55,.4)"/>
	</g>
</g></g> </svg>
