<svg xmlns="http://www.w3.org/2000/svg" xmlns:xlink="http://www.w3.org/1999/xlink" width="150" height="149.997" viewBox="0 0 150 149.997">
  <defs>
    <linearGradient id="linear-gradient" x1="0.5" x2="0.5" y2="1" gradientUnits="objectBoundingBox">
      <stop offset="0" stop-color="#d7e6e6"/>
      <stop offset="1" stop-color="#00a9b9"/>
    </linearGradient>
  </defs>
  <path id="git-alt-brands" d="M147.17,100.322,81.7,34.831a9.666,9.666,0,0,0-13.664,0l-13.614,13.6,17.25,17.25A11.478,11.478,0,0,1,86.2,80.31l16.627,16.627c11.461-3.951,20.484,10.379,11.876,18.981-8.869,8.869-23.508-.961-18.75-12.5L80.43,87.917v40.8c8.471,4.2,7.453,14.012,3.04,18.415a11.489,11.489,0,1,1-12.489-18.75V87.2A11.485,11.485,0,0,1,64.74,72.13L47.735,55.1,2.829,100.018a9.663,9.663,0,0,0,0,13.664l65.494,65.491a9.663,9.663,0,0,0,13.661,0l65.186-65.186A9.663,9.663,0,0,0,147.17,100.322Z" transform="translate(0.001 -32.003)" fill="url(#linear-gradient)"/>
</svg>
