<svg xmlns="http://www.w3.org/2000/svg" xmlns:xlink="http://www.w3.org/1999/xlink" width="150" height="131.257" viewBox="0 0 150 131.257">
  <defs>
    <linearGradient id="linear-gradient" x1="0.5" x2="0.5" y2="1" gradientUnits="objectBoundingBox">
      <stop offset="0" stop-color="#d7e6e6"/>
      <stop offset="1" stop-color="#00a9b9"/>
    </linearGradient>
  </defs>
  <path id="react-brands" d="M122.52,74.548q-2.373-.791-4.746-1.494c.264-1.084.5-2.168.732-3.252,3.6-17.461,1.23-31.494-6.768-36.123-7.705-4.424-20.273.176-32.988,11.25-1.26,1.084-2.49,2.227-3.662,3.369-.791-.762-1.611-1.523-2.432-2.256C59.326,34.206,45.967,29.226,37.969,33.884c-7.676,4.453-9.961,17.666-6.738,34.189.322,1.641.674,3.252,1.084,4.893-1.875.527-3.721,1.113-5.449,1.729C11.221,80.114,0,88.669,0,97.517c0,9.141,11.953,18.311,28.213,23.877,1.318.439,2.637.879,3.984,1.26-.439,1.758-.82,3.486-1.172,5.273-3.076,16.26-.674,29.15,7,33.574,7.91,4.57,21.211-.117,34.16-11.455,1.025-.908,2.051-1.846,3.076-2.842,1.289,1.26,2.637,2.461,3.984,3.633,12.539,10.781,24.932,15.146,32.578,10.723,7.91-4.57,10.488-18.428,7.148-35.3q-.4-1.934-.879-3.955c.938-.264,1.846-.557,2.754-.85,16.9-5.6,29.15-14.648,29.15-23.936,0-8.877-11.543-17.49-27.48-22.969ZM82.881,49.675c10.9-9.492,21.064-13.213,25.693-10.547,4.951,2.842,6.855,14.326,3.75,29.414-.205,1-.41,1.963-.674,2.93a149.978,149.978,0,0,0-19.717-3.105A148.021,148.021,0,0,0,79.453,52.81c1.143-1.084,2.256-2.109,3.428-3.135Zm-33.9,63.047c1.494,2.549,3.018,5.1,4.629,7.588a132.665,132.665,0,0,1-13.594-2.2,136.856,136.856,0,0,1,4.775-13.037c1.348,2.578,2.725,5.127,4.189,7.646ZM40.107,77.478c4.219-.937,8.7-1.7,13.359-2.285-1.553,2.432-3.076,4.922-4.512,7.441-1.436,2.49-2.842,5.039-4.16,7.617-1.846-4.365-3.4-8.643-4.687-12.773Zm8.027,20.186c1.934-4.043,4.043-8,6.27-11.895s4.629-7.676,7.148-11.4c4.395-.322,8.877-.5,13.447-.5s9.082.176,13.447.5q3.735,5.537,7.119,11.338t6.357,11.836Q98.979,103.61,95.6,109.5c-2.227,3.9-4.6,7.676-7.09,11.426-4.365.322-8.906.469-13.506.469s-9.053-.146-13.359-.41q-3.823-5.581-7.207-11.426c-2.256-3.9-4.336-7.852-6.3-11.895Zm52.91,15c1.494-2.578,2.9-5.186,4.277-7.822a136,136,0,0,1,4.951,12.979,128.683,128.683,0,0,1-13.77,2.344c1.582-2.461,3.076-4.98,4.541-7.5Zm4.219-22.412c-1.377-2.578-2.783-5.156-4.248-7.676q-2.153-3.735-4.482-7.383a134.818,134.818,0,0,1,13.447,2.344A129.656,129.656,0,0,1,105.264,90.251ZM75.059,57.292A128.651,128.651,0,0,1,83.73,67.78c-5.8-.264-11.631-.264-17.432,0C69.17,64,72.129,60.485,75.059,57.292ZM41.074,39.333c4.922-2.871,15.85,1.23,27.363,11.426.732.645,1.465,1.348,2.227,2.051A148.844,148.844,0,0,0,58.1,68.366a154.432,154.432,0,0,0-19.687,3.047c-.381-1.494-.7-3.018-1.025-4.541C34.629,52.692,36.445,42,41.074,39.333ZM33.9,116.56c-1.23-.352-2.432-.732-3.633-1.143-6.24-1.963-13.33-5.068-18.457-9.141A13.146,13.146,0,0,1,6.3,97.517c0-5.361,9.258-12.217,22.617-16.875,1.67-.586,3.369-1.113,5.068-1.611a155.784,155.784,0,0,0,7.178,18.633A160.144,160.144,0,0,0,33.9,116.56Zm34.16,28.711a53.623,53.623,0,0,1-16.523,10.342,12.967,12.967,0,0,1-10.342.381c-4.658-2.7-6.592-13.037-3.955-26.953.322-1.641.674-3.281,1.084-4.893a146.564,146.564,0,0,0,19.893,2.871,154.6,154.6,0,0,0,12.656,15.645c-.937.908-1.875,1.787-2.812,2.607Zm7.178-7.119c-2.988-3.223-5.977-6.8-8.877-10.635,2.813.117,5.713.176,8.643.176,3.018,0,5.977-.059,8.906-.205A126.346,126.346,0,0,1,75.234,138.151Zm38.291,8.789a13.02,13.02,0,0,1-4.834,9.17c-4.658,2.7-14.59-.82-25.312-10.02-1.23-1.055-2.461-2.2-3.721-3.369a144.929,144.929,0,0,0,12.363-15.7A144.422,144.422,0,0,0,112,123.942c.293,1.2.557,2.4.791,3.574a53.406,53.406,0,0,1,.732,19.424Zm5.332-31.494c-.82.264-1.641.527-2.49.762A148.828,148.828,0,0,0,108.9,97.517a148.082,148.082,0,0,0,7.178-18.428c1.523.439,2.988.908,4.395,1.377,13.652,4.688,23.232,11.66,23.232,16.992C143.7,103.2,133.477,110.612,118.857,115.446ZM75,111.052A13.418,13.418,0,1,0,61.582,97.634,13.416,13.416,0,0,0,75,111.052Z" transform="translate(0 -32.012)" fill="url(#linear-gradient)"/>
</svg>
