<svg xmlns="http://www.w3.org/2000/svg" xmlns:xlink="http://www.w3.org/1999/xlink" width="150" height="112.51" viewBox="0 0 150 112.51">
  <defs>
    <linearGradient id="linear-gradient" x1="0.5" x2="0.5" y2="1" gradientUnits="objectBoundingBox">
      <stop offset="0" stop-color="#94d3d7"/>
      <stop offset="1" stop-color="#00a9b9"/>
    </linearGradient>
  </defs>
  <path id="sass-brands" d="M70.747,101.064C70.677,101.2,70.607,101.317,70.747,101.064Zm58.391-20.391a30.741,30.741,0,0,0-13.594,3.164c-1.383-2.789-2.813-5.227-3.047-7.055a18.832,18.832,0,0,1-.258-5.93,49.937,49.937,0,0,1,1.781-6.375c-.023-.258-.328-1.547-3.352-1.57s-5.625.586-5.927,1.383a28.788,28.788,0,0,0-1.242,4.477c-.539,2.742-6.045,12.539-9.162,17.649a18.2,18.2,0,0,1-2.086-5.156,18.832,18.832,0,0,1-.258-5.93,49.935,49.935,0,0,1,1.781-6.375c-.023-.258-.328-1.547-3.349-1.57s-5.625.586-5.93,1.383-.633,2.672-1.242,4.477S75.311,91.36,73.391,95.6c-.984,2.156-1.828,3.891-2.438,5.063-.094.188-.164.3-.211.4.07-.117.117-.234.117-.187-.516,1.008-.82,1.57-.82,1.57v.023c-.4.75-.844,1.43-1.055,1.43-.141,0-.445-1.969.07-4.664,1.1-5.672,3.7-14.485,3.68-14.789-.023-.164.492-1.688-1.711-2.508a2.759,2.759,0,0,0-3.094.516c-.188,0-.328.469-.328.469s2.367-9.938-4.545-9.938c-4.313,0-10.313,4.734-13.261,9.024-1.852,1.008-5.859,3.188-10.078,5.508-1.617.891-3.281,1.8-4.852,2.672-.117-.117-.211-.234-.328-.352-8.388-8.953-23.876-15.281-23.22-27.305.234-4.383,1.758-15.891,29.782-29.86C64.07,21.235,82.433,24.375,85.6,31.36c4.547,9.961-9.818,28.5-33.671,31.172-9.092,1.008-13.87-2.508-15.066-3.82-1.242-1.383-1.43-1.453-1.9-1.2-.773.422-.281,1.641,0,2.367.7,1.852,3.633,5.133,8.623,6.774,4.383,1.43,15.042,2.227,27.931-2.766,14.48-5.578,25.751-21.117,22.446-34.125-3.366-13.219-25.285-17.555-46.011-10.2-12.349,4.383-25.7,11.274-35.311,20.25C1.226,50.508-.6,59.813.15,63.7c2.67,13.8,21.7,22.8,29.311,29.461-.375.211-.727.4-1.055.586-3.818,1.9-18.324,9.492-21.954,17.508-4.1,9.094.68,15.61,3.818,16.5,9.795,2.719,19.824-2.18,25.212-10.219S40.217,99,37.733,94.22c-.023-.07-.07-.117-.094-.187.984-.586,1.992-1.172,3-1.758,1.943-1.148,3.841-2.2,5.506-3.117a36.4,36.4,0,0,0-1.969,9.984c-.422,5.156,1.711,11.836,4.477,14.461a4.919,4.919,0,0,0,3.607,1.172c3.234,0,4.688-2.672,6.3-5.859,1.992-3.891,3.75-8.414,3.75-8.414s-2.2,12.235,3.82,12.235c2.2,0,4.4-2.836,5.391-4.289v.023s.047-.094.164-.281c.234-.352.352-.563.352-.563v-.07c.891-1.523,2.836-5.016,5.763-10.781,3.8-7.453,7.427-16.758,7.427-16.758a47.168,47.168,0,0,0,1.453,6.047,56.616,56.616,0,0,0,3.141,7.031c-.891,1.219-1.43,1.922-1.43,1.922a.073.073,0,0,0,.023.047c-.7.938-1.5,1.945-2.32,2.93-3,3.563-6.563,7.641-7.031,8.813-.563,1.383-.422,2.414.656,3.211a5.7,5.7,0,0,0,3.677.586,16.253,16.253,0,0,0,5.508-1.266,19.266,19.266,0,0,0,4.732-2.484,10.581,10.581,0,0,0,4.547-9.328,19.411,19.411,0,0,0-1.711-6.609c.258-.375.539-.773.8-1.172A124.6,124.6,0,0,0,105.5,75.535a47.166,47.166,0,0,0,1.453,6.047,41.338,41.338,0,0,0,2.67,6.024c-4.357,3.539-7.052,7.641-7.99,10.336-1.734,4.992-.375,7.242,2.18,7.758a7.864,7.864,0,0,0,4.008-.82,18.623,18.623,0,0,0,5.06-2.6c2.93-2.156,5.763-5.18,5.576-9.281a17.437,17.437,0,0,0-1.266-5.484,28.608,28.608,0,0,1,14.553-1.688c13.05,1.523,15.6,9.68,15.113,13.078a8.665,8.665,0,0,1-4.148,5.859c-.914.563-1.2.773-1.125,1.2.117.609.539.586,1.313.445,1.078-.187,6.841-2.766,7.1-9.07.375-7.969-7.287-16.735-20.86-16.664ZM28.548,114.587c-4.31,4.711-10.357,6.492-12.956,4.992C12.8,117.958,13.9,111.025,19.222,106a69.444,69.444,0,0,1,10.17-7.594c.633-.375,1.547-.938,2.672-1.617.188-.117.281-.164.281-.164.211-.141.445-.258.68-.4a18.707,18.707,0,0,1-4.477,18.352ZM60.039,93.165c-1.5,3.68-4.662,13.055-6.584,12.563-1.641-.422-2.648-7.57-.328-14.6a32.325,32.325,0,0,1,5.133-9.4c2.365-2.648,4.966-3.492,5.576-2.438.82,1.383-2.859,11.578-3.8,13.875Zm26.016,12.422c-.633.328-1.219.539-1.5.375-.211-.117.258-.563.258-.563s3.258-3.492,4.547-5.086c.75-.938,1.617-2.039,2.552-3.258,0,.117.023.234.023.375-.03,4.2-4.059,7.031-5.888,8.156Zm20.058-4.57c-.469-.328-.4-1.43,1.172-4.852a18.217,18.217,0,0,1,4.453-5.742,8.48,8.48,0,0,1,.445,2.531c-.023,5.274-3.8,7.242-6.068,8.063Z" transform="translate(-0.004 -16.004)" fill="url(#linear-gradient)"/>
</svg>
