<svg xmlns="http://www.w3.org/2000/svg" xmlns:xlink="http://www.w3.org/1999/xlink" width="60" height="41.47" viewBox="0 0 60 41.47">
  <defs>
    <linearGradient id="linear-gradient" x1="0.5" x2="0.5" y2="1" gradientUnits="objectBoundingBox">
      <stop offset="0" stop-color="#d7e6e6"/>
      <stop offset="1" stop-color="#00a9b9"/>
    </linearGradient>
  </defs>
  <path id="terminal-solid" d="M24.185,59.718,5.966,77.938a2.25,2.25,0,0,1-3.182,0L.658,75.813a2.25,2.25,0,0,1,0-3.178l14.44-14.507L.655,43.62a2.25,2.25,0,0,1,0-3.178l2.125-2.125a2.25,2.25,0,0,1,3.182,0l18.22,18.22A2.25,2.25,0,0,1,24.185,59.718ZM60,76.877v-3a2.25,2.25,0,0,0-2.25-2.25H29.25A2.25,2.25,0,0,0,27,73.877v3a2.25,2.25,0,0,0,2.25,2.25h28.5A2.25,2.25,0,0,0,60,76.877Z" transform="translate(0 -37.657)" fill="url(#linear-gradient)"/>
</svg>
